<?xml version="1.0" encoding="iso-8859-1"?>
<!-- Generator: Adobe Illustrator 19.0.0, SVG Export Plug-In . SVG Version: 6.00 Build 0)  -->
<svg version="1.1" id="Layer_1" xmlns="http://www.w3.org/2000/svg" xmlns:xlink="http://www.w3.org/1999/xlink" x="0px" y="0px"
	 viewBox="0 0 512 512" style="enable-background:new 0 0 512 512;" xml:space="preserve">
<path style="fill:#FDC794;" d="M72.468,236.579c-39.724-32.662,8.828-59.145,32.662-45.903l0,0
	c29.131,15.89,66.207,50.317,84.745,74.152l-35.31-198.621c-3.531-21.186,13.241-30.897,30.897-30.897s25.6,7.062,30.897,30.897
	l36.193,172.138l43.255-207.448C300.219,9.71,309.047,0,326.702,0c12.359,0,23.834,7.945,28.248,18.538
	c2.648,5.297,2.648,12.359,0.883,17.655l-24.717,122.703c4.414-15.007,19.421-23.834,35.31-21.186
	c16.772,3.531,27.366,19.421,24.717,36.193l-5.297,25.6c3.531-16.772,19.421-27.366,36.193-24.717
	c16.772,2.648,27.366,19.421,24.717,36.193l-8.828,48.552v67.09c0,87.393,1.766,85.628-26.483,123.586v35.31
	c0,15.007-13.241,26.483-27.366,26.483H225.185c-14.124,0-25.6-11.476-25.6-26.483v-35.31c0,0-52.083-28.248-62.676-105.931
	C136.909,344.276,133.378,286.897,72.468,236.579"/>
<g transform="translate(18 51)">
	<path style="fill:#FDC794;" d="M190.413,399.207h26.483"/>
	<path style="fill:#F9A671;" d="M216.895,408.034h-26.483c-5.297,0-8.828-3.531-8.828-8.828c0-5.297,3.531-8.828,8.828-8.828h26.483
		c5.297,0,8.828,3.531,8.828,8.828C225.723,404.503,222.192,408.034,216.895,408.034z"/>
</g>
<g transform="translate(38 51)">
	<path style="fill:#FDC794;" d="M364.619,399.207h-17.655"/>
	<path style="fill:#F9A671;" d="M364.619,408.034h-17.655c-5.297,0-8.828-3.531-8.828-8.828c0-5.297,3.531-8.828,8.828-8.828h17.655
		c5.297,0,8.828,3.531,8.828,8.828C373.447,404.503,369.916,408.034,364.619,408.034z"/>
</g>
<g transform="translate(15 30)">
	<path style="fill:#FDC794;" d="M174.875,234.828c5.297,19.421,14.124,39.724,26.483,52.965"/>
	<path style="fill:#F9A671;" d="M201.357,296.621c-2.648,0-5.297-0.883-7.062-2.648c-15.89-16.772-24.717-43.255-28.248-56.497
		c-0.883-5.297,1.766-9.71,6.179-11.476c4.414-0.883,9.71,1.766,10.593,6.179c5.297,21.186,14.124,38.841,24.717,49.434
		c3.531,3.531,3.531,8.828,0,12.359C205.771,295.738,203.123,296.621,201.357,296.621z"/>
</g>
<path style="fill:#FDC794;" d="M331.116,319.559L331.116,319.559c-16.772-3.531-27.366-19.421-24.717-36.193l22.952-116.524
	c3.531-16.772,19.421-27.366,36.193-24.717c16.772,3.531,27.365,19.421,24.717,36.193l-22.952,116.524
	C364.661,311.614,347.888,323.09,331.116,319.559"/>
<path style="fill:#F9A671;" d="M337.295,328.386c-2.648,0-5.297,0-7.945-0.883c-10.593-1.766-19.421-7.945-25.6-16.772
	c-6.179-8.828-7.945-19.421-6.179-30.014l22.952-116.524c1.766-10.593,7.945-19.421,16.772-25.6
	c8.828-6.179,19.421-7.945,30.014-6.179c21.186,4.414,35.31,25.6,30.897,46.786l-22.069,117.407
	C372.606,316.028,355.833,328.386,337.295,328.386z M360.247,150.069c-4.414,0-8.828,0.883-12.359,3.531
	c-5.297,3.531-7.945,7.945-9.71,14.124l-22.952,116.524c-0.883,6.179,0,11.476,3.531,16.772c3.531,5.297,7.945,7.945,14.124,9.71
	c12.359,2.648,23.834-5.297,25.6-17.655l23.834-116.524c2.648-12.359-5.297-23.834-17.655-25.6
	C362.895,150.069,362.013,150.069,360.247,150.069z"/>
<path style="fill:#FDC794;" d="M392.026,331.034L392.026,331.034c-16.772-3.531-27.366-19.421-24.717-36.193l17.655-90.924
	c3.531-16.772,19.421-27.366,36.193-24.717c16.772,3.531,27.366,19.421,24.717,36.193l-17.655,90.924
	C424.688,323.972,408.799,334.566,392.026,331.034"/>
<path style="fill:#F9A671;" d="M398.206,340.745c-2.648,0-5.297,0-7.945-0.883c-10.593-1.766-19.421-7.945-25.6-16.772
	c-6.179-8.828-7.945-19.421-6.179-30.014l17.655-90.924c1.766-10.593,7.945-19.421,16.772-25.6
	c8.828-6.179,19.421-7.945,30.014-6.179c21.186,4.414,35.31,25.6,30.897,46.786l-17.655,90.924
	C433.516,327.503,416.744,340.745,398.206,340.745z M415.861,188.028c-4.414,0-8.828,0.883-12.359,3.531
	c-5.297,3.531-7.945,7.945-9.71,14.124l-17.655,90.924c-0.883,6.179,0,11.476,3.531,16.772c3.531,5.297,7.945,7.945,14.124,9.71
	c12.359,2.648,23.835-5.297,25.6-17.655l17.655-90.924c2.648-12.359-5.297-23.834-17.655-25.6
	C418.509,188.028,417.626,188.028,415.861,188.028z"/>
<g>
</g>
<g>
</g>
<g>
</g>
<g>
</g>
<g>
</g>
<g>
</g>
<g>
</g>
<g>
</g>
<g>
</g>
<g>
</g>
<g>
</g>
<g>
</g>
<g>
</g>
<g>
</g>
<g>
</g>
</svg>
