<?xml version="1.0" encoding="iso-8859-1"?>
<!-- Generator: Adobe Illustrator 19.0.0, SVG Export Plug-In . SVG Version: 6.00 Build 0)  -->
<svg version="1.1" id="Layer_1" xmlns="http://www.w3.org/2000/svg" xmlns:xlink="http://www.w3.org/1999/xlink" x="0px" y="0px"
	 viewBox="0 0 512 512" style="enable-background:new 0 0 512 512;" xml:space="preserve">
<path style="fill:#FDC794;" d="M455.847,154.483c-4.414-2.648-10.593-4.414-15.89-4.414c-12.359,0-22.069,8.828-28.248,18.538
	c-7.062,12.359-51.2,87.393-51.2,87.393l48.552-207.448c3.531-20.303-12.359-31.779-30.897-30.897
	c-16.772,0-26.483,13.241-30.897,30.897l-48.552,189.793V35.31v-4.414C298.716,14.124,284.592,0,267.82,0
	c-16.772,0-30.897,14.124-30.897,30.897v201.269L188.371,66.207c-5.297-15.89-11.476-30.014-30.897-30.897
	c-11.476,0-21.186,6.179-26.483,15.007c-4.414,7.062-4.414,15.007-2.648,22.952l51.2,209.214
	c-17.655-44.138-60.028-75.917-89.159-91.807c-23.834-13.241-73.269,15.007-32.662,45.903
	c28.248,22.069,59.145,77.683,68.855,108.579v-0.883c15.89,75.034,66.207,105.931,66.207,105.931v35.31
	c0,16.772,12.359,26.483,26.483,26.483h154.483c15.007,0,22.069-9.71,22.069-26.483v-35.31
	c24.717-32.662,26.483-35.31,26.483-90.041c0-22.069,7.945-45.021,14.124-66.207l31.779-104.166
	C472.62,176.552,467.323,161.545,455.847,154.483"/>
<g transform="translate(18 51)">
	<path style="fill:#FDC794;" d="M183.613,399.207h26.483"/>
	<path style="fill:#F9A671;" d="M210.096,408.034h-26.483c-5.297,0-8.828-3.531-8.828-8.828c0-5.297,3.531-8.828,8.828-8.828h26.483
		c5.297,0,8.828,3.531,8.828,8.828C218.923,404.503,215.392,408.034,210.096,408.034z"/>
</g>
<g transform="translate(37 51)">
	<path style="fill:#FDC794;" d="M349.992,399.207h-17.655"/>
	<path style="fill:#F9A671;" d="M349.992,408.034h-17.655c-5.297,0-8.828-3.531-8.828-8.828c0-5.297,3.531-8.828,8.828-8.828h17.655
		c5.297,0,8.828,3.531,8.828,8.828C358.82,404.503,355.289,408.034,349.992,408.034z"/>
</g>
<g transform="translate(15 32)">
	<path style="fill:#FDC794;" d="M164.544,250.483c4.414,12.359,9.71,24.717,26.483,35.31"/>
	<path style="fill:#F9A671;" d="M191.027,294.621c-1.766,0-3.531-0.883-4.414-1.766c-19.421-12.359-25.6-27.366-30.014-38.841
		c-1.766-4.414,0-9.71,5.297-11.476c4.414-1.766,9.71,0,11.476,5.297c4.414,11.476,8.828,22.069,22.952,30.897
		c4.414,2.648,5.297,7.945,2.648,12.359C196.323,292.855,193.675,294.621,191.027,294.621z"/>
</g>
<g transform="translate(21 26)">
	<path style="fill:#FDC794;" d="M215.923,203.517c1.766,9.71,0,17.655-5.297,19.421"/>
	<path style="fill:#F9A671;" d="M210.627,231.766c-4.414,0-7.945-2.648-8.828-7.062c-0.883-4.414,1.766-8.828,5.297-10.593
		c0.883-1.766,0.883-4.414,0-8.828c-0.883-4.414,2.648-9.71,7.062-10.593c4.414-0.883,9.71,2.648,10.593,7.062
		c2.648,15.007-1.766,27.366-12.359,29.131C211.509,231.766,211.509,231.766,210.627,231.766z"/>
</g>
<g transform="translate(22 26)">
	<path style="fill:#FDC794;" d="M214.923,203.517c1.766,9.71,7.062,16.772,12.359,15.89"/>
	<path style="fill:#F9A671;" d="M226.399,228.234c-8.828,0-16.772-8.828-19.421-22.952c-1.766-4.414,1.766-9.71,6.179-10.593
		c4.414-0.883,9.71,2.648,10.593,7.062s2.648,7.062,3.531,8.828c4.414,0,7.945,2.648,8.828,7.062
		c0.883,4.414-1.766,9.71-7.062,10.593C228.164,228.234,227.282,228.234,226.399,228.234z"/>
</g>
<g transform="translate(28 27)">
	<path style="fill:#FDC794;" d="M270.716,211.345c0,9.71-4.414,17.655-8.828,17.655"/>
	<path style="fill:#F9A671;" d="M261.889,237.828c-5.297,0-8.828-3.531-8.828-8.828c0-4.414,2.648-7.945,7.062-8.828
		c0.883-0.883,1.766-4.414,1.766-8.828c0-5.297,3.531-8.828,8.828-8.828c5.297,0,8.828,3.531,8.828,8.828
		C279.544,226.352,272.482,237.828,261.889,237.828z"/>
</g>
<g transform="translate(29 27)">
	<path style="fill:#FDC794;" d="M269.716,211.345c0,9.71,3.531,17.655,8.828,17.655"/>
	<path style="fill:#F9A671;" d="M278.544,237.828c-10.593,0-17.655-11.476-17.655-26.483c0-5.297,3.531-8.828,8.828-8.828
		c5.297,0,8.828,3.531,8.828,8.828c0,4.414,0.883,7.945,1.766,8.828c4.414,0.883,7.062,4.414,7.062,8.828
		C287.371,234.297,283.84,237.828,278.544,237.828z M281.192,221.055L281.192,221.055L281.192,221.055z"/>
</g>
<g transform="translate(34 29)">
	<path style="fill:#FDC794;" d="M326.509,227c-1.766,9.71-7.062,16.772-12.359,15.89"/>
	<path style="fill:#F9A671;" d="M315.033,251.717c-0.883,0-1.766,0-2.648,0c-4.414-0.883-7.945-5.297-7.062-10.593
		c0.883-4.414,4.414-7.062,8.828-7.062c0.883-0.883,2.648-3.531,3.531-8.828c0.883-4.414,5.297-7.945,10.593-7.062
		c4.414,0.883,7.945,6.179,7.062,10.593c-1.766,8.828-6.179,16.772-11.476,20.303C321.213,250.834,317.682,251.717,315.033,251.717z
		"/>
</g>
<g transform="translate(35 29)">
	<path style="fill:#FDC794;" d="M325.509,227c-1.766,9.71,0,17.655,5.297,19.421"/>
	<path style="fill:#F9A671;" d="M330.806,255.248c-0.883,0-0.883,0-1.766,0c-9.71-2.648-15.007-15.007-12.359-30.014
		c0.883-4.414,6.179-7.945,10.593-7.062c4.414,0.883,7.945,6.179,7.062,10.593c-0.883,4.414,0,7.945,0,8.828
		c3.531,1.766,6.179,5.297,5.297,9.71C338.751,251.717,335.22,255.248,330.806,255.248z M334.337,238.476L334.337,238.476
		L334.337,238.476z"/>
</g>
<g>
</g>
<g>
</g>
<g>
</g>
<g>
</g>
<g>
</g>
<g>
</g>
<g>
</g>
<g>
</g>
<g>
</g>
<g>
</g>
<g>
</g>
<g>
</g>
<g>
</g>
<g>
</g>
<g>
</g>
</svg>
